# xmcd CD database file
#
# Track frame offsets:
#	150
#	24503
#	85699
#	107628
#	136631
#	161952
#	188823
#	221912
#	243040
#	274007
#	292519
#
# Disc length: 4206 seconds
#
# Revision: 0
# Processed by: cddbd v1.5.1PL2 Copyright (c) Steve Scherf et al.
# Submitted via: CDex 1.51
#
DISCID=8c106c0b
DTITLE=Blues Keepers - Ao Vivo Lado A - Projeto Open Studio
DYEAR=2004
DGENRE=Blues
TTITLE0=Let The Good Times Roll
TTITLE1=Black Night
TTITLE2=Checkin' On My Baby
TTITLE3=You Damn Right I've Got The Blues
TTITLE4=Spoonful
TTITLE5=Hoochie Coochie Man
TTITLE6=Little Wing
TTITLE7=Six Strings Down
TTITLE8=Stormy Monday
TTITLE9=Route 66
TTITLE10=After All
EXTD=YEAR: 2004
EXTT0=
EXTT1=
EXTT2=
EXTT3=
EXTT4=
EXTT5=
EXTT6=
EXTT7=
EXTT8=
EXTT9=
EXTT10=
PLAYORDER=
